<svg xmlns="http://www.w3.org/2000/svg" xmlns:xlink="http://www.w3.org/1999/xlink" version="1.1" x="0px" y="0px" viewBox="0 0 100 100" style="enable-background:new 0 0 100 100;" xml:space="preserve"><g><path d="M26.2,46.5c0.5,0.3,1.1,0.2,1.4-0.3l2.6-3.7L41,47.7c0.1,0.1,0.3,0.1,0.4,0.1c0.4,0,0.7-0.2,0.9-0.6c0.2-0.5,0-1.1-0.5-1.3   l-11.6-5.5c-0.4-0.2-1-0.1-1.2,0.3l-3.1,4.4C25.6,45.6,25.7,46.2,26.2,46.5z"></path><path d="M95.9,55.3c-0.1-0.3-0.4-0.5-0.7-0.6l-9-2.6c-0.5-0.2-1.1,0.2-1.2,0.7c-0.2,0.5,0.2,1.1,0.7,1.2l7.7,2.2L71.6,93.8   l-21.5-8.5l23.4-35.5c0.2-0.3,0.2-0.7,0-1s-0.5-0.5-0.9-0.5l-17,0.3c-0.6,0-1,0.5-1,1c0,0.6,0.5,1,1,1l15.1-0.3L48,84.8L26.4,85   L38,66.8c0.3-0.5,0.2-1.1-0.3-1.4s-1.1-0.2-1.4,0.3L24.2,84.8L6.5,76.6l8.6-12.4c0.3-0.5,0.2-1.1-0.3-1.4c-0.5-0.3-1.1-0.2-1.4,0.3   L4.2,76.4C4,76.7,4,77,4,77.3c0.1,0.3,0.3,0.5,0.5,0.6l19.6,9l0,0c0.1,0,0.2,0.1,0.4,0.1l0,0l0,0l0,0l23.8-0.3l23.2,9.2   c0.1,0,0.2,0.1,0.4,0.1c0.3,0,0.7-0.2,0.9-0.5l23-39.3C96,55.9,96,55.6,95.9,55.3z"></path><path d="M78.5,31.2C78.5,31.2,78.6,31.2,78.5,31.2c0.1,0.1,0.2,0.1,0.2,0.2l0.1,0.1l0,0c0.1,0.1,0.2,0.1,0.4,0.1l0,0l0,0   c0.1,0,0.3,0,0.4-0.1l0,0c0.1,0,0.1-0.1,0.1-0.1c0.1,0,0.1-0.1,0.2-0.1c0,0,0,0,0-0.1l0,0c0.7-0.9,4.3-5.8,4.3-8.3   c0-2.8-2.3-5.1-5.1-5.1S74,20.1,74,22.9C74.2,25.3,77.8,30.2,78.5,31.2C78.5,31.1,78.5,31.1,78.5,31.2z M79.3,19.8   c1.7,0,3.1,1.4,3.1,3.1c0,1.1-1.6,3.8-3.1,6c-1.5-2.1-3.1-4.8-3.1-6C76.2,21.2,77.6,19.8,79.3,19.8z"></path><path d="M47.8,29.1C47.9,29.2,47.9,29.2,47.8,29.1c0.1,0.1,0.1,0.1,0.2,0.2l0.1,0.1c0.1,0.1,0.3,0.1,0.4,0.1c0.1,0,0.3,0,0.4-0.1   l0.1-0.1c0.1,0,0.1-0.1,0.2-0.1c0,0,0,0,0-0.1c0,0,0,0,0.1,0c0.9-1.1,8.4-11.2,8.4-15.9c0-5.1-4.1-9.2-9.2-9.2s-9.2,4.1-9.2,9.2   C39.4,17.9,46.9,28,47.8,29.1L47.8,29.1z M48.6,6c4,0,7.2,3.2,7.2,7.2c0,3.1-4.6,10.1-7.2,13.6c-2.6-3.5-7.2-10.6-7.2-13.6   C41.4,9.2,44.6,6,48.6,6z"></path><path d="M20.5,41C20.6,41,20.6,41,20.5,41c0.1,0.1,0.2,0.2,0.2,0.2l0.1,0.1l0,0c0.1,0,0.2,0.1,0.4,0.1c0.1,0,0.3,0,0.4-0.1   c0,0,0.1,0,0.1-0.1c0.1,0,0.1-0.1,0.2-0.1c0,0,0,0,0-0.1l0,0c0.6-0.8,5.7-7.6,5.7-10.8c0-3.6-2.9-6.5-6.5-6.5s-6.5,2.9-6.5,6.5   C14.8,33.4,19.9,40.1,20.5,41C20.5,40.9,20.5,40.9,20.5,41z M21.3,25.6c2.5,0,4.5,2,4.5,4.5c0,1.7-2.5,5.7-4.5,8.5   c-2-2.8-4.5-6.8-4.5-8.5C16.8,27.6,18.8,25.6,21.3,25.6z"></path><path d="M48.2,57.9c-0.1,0-0.2,0.1-0.3,0.2c-0.2,0.2-0.3,0.4-0.3,0.7s0.1,0.5,0.3,0.7c0.1,0.1,0.2,0.2,0.3,0.2   c0.1,0.1,0.2,0.1,0.4,0.1c0.3,0,0.5-0.1,0.7-0.3s0.3-0.5,0.3-0.7c0-0.3-0.1-0.5-0.3-0.7C49,57.8,48.6,57.8,48.2,57.9z"></path><path d="M48.6,47.7c-0.5,0-1,0.5-1,1c0,0.6,0.5,1,1,1c0.6,0,1-0.4,1-1C49.6,48.2,49.1,47.7,48.6,47.7z"></path><path d="M48.6,42.7c-0.5,0-1,0.5-1,1c0,0.6,0.5,1,1,1c0.6,0,1-0.4,1-1C49.6,43.1,49.1,42.7,48.6,42.7z"></path><path d="M48.6,52.8c-0.5,0-1,0.5-1,1s0.5,1,1,1c0.6,0,1-0.5,1-1S49.1,52.8,48.6,52.8z"></path><path d="M48.6,32.5c-0.5,0-1,0.4-1,1c0,0.5,0.5,1,1,1c0.6,0,1-0.5,1-1S49.1,32.5,48.6,32.5z"></path><path d="M48.6,37.6c-0.5,0-1,0.5-1,1c0,0.6,0.5,1,1,1c0.6,0,1-0.4,1-1S49.1,37.6,48.6,37.6z"></path><circle cx="79.3" cy="58.9" r="1"></circle><circle cx="79.3" cy="35.3" r="1"></circle><path d="M79.3,39c-0.5,0-1,0.5-1,1s0.5,1,1,1s1-0.4,1-1S79.8,39,79.3,39z"></path><circle cx="79.3" cy="49.5" r="1"></circle><path d="M79.3,53.2c-0.5,0-1,0.5-1,1c0,0.6,0.5,1,1,1s1-0.4,1-1C80.3,53.6,79.8,53.2,79.3,53.2z"></path><circle cx="79.3" cy="44.7" r="1"></circle><path d="M78.9,62.8c-0.1,0-0.2,0.1-0.3,0.2c-0.2,0.2-0.3,0.4-0.3,0.7c0,0.3,0.1,0.5,0.3,0.7c0.1,0.1,0.2,0.2,0.3,0.2   c0.1,0.1,0.2,0.1,0.4,0.1c0.3,0,0.5-0.1,0.7-0.3c0.2-0.2,0.3-0.4,0.3-0.7S80.2,63.2,80,63C79.7,62.7,79.3,62.6,78.9,62.8z"></path><path d="M21.3,55.2c-0.6,0-1,0.4-1,1s0.4,1,1,1s1-0.4,1-1C22.3,55.7,21.8,55.2,21.3,55.2z"></path><path d="M21.3,65.8c-0.6,0-1,0.5-1,1s0.4,1,1,1s1-0.5,1-1S21.8,65.8,21.3,65.8z"></path><path d="M21.3,44.6c-0.6,0-1,0.5-1,1s0.4,1,1,1s1-0.5,1-1S21.8,44.6,21.3,44.6z"></path><path d="M21.3,49.9c-0.6,0-1,0.5-1,1c0,0.6,0.4,1,1,1s1-0.4,1-1C22.3,50.4,21.8,49.9,21.3,49.9z"></path><path d="M21.3,60.5c-0.6,0-1,0.4-1,1c0,0.5,0.4,1,1,1s1-0.5,1-1S21.8,60.5,21.3,60.5z"></path><path d="M20.6,71.4c-0.1,0.1-0.2,0.2-0.2,0.3c0,0.1-0.1,0.2-0.1,0.4c0,0.3,0.1,0.5,0.3,0.7c0.2,0.2,0.4,0.3,0.7,0.3   c0.1,0,0.1,0,0.2,0s0.1,0,0.2,0s0.1-0.1,0.2-0.1s0.1-0.1,0.2-0.1l0.1-0.1c0,0,0.1-0.1,0.1-0.2s0-0.1,0.1-0.2c0-0.1,0-0.1,0-0.2   s0-0.3-0.1-0.4c0-0.1-0.1-0.2-0.2-0.3C21.6,71,21,71,20.6,71.4z"></path></g></svg>