<svg xmlns:dc="http://purl.org/dc/elements/1.1/" xmlns:cc="http://creativecommons.org/ns#" xmlns:rdf="http://www.w3.org/1999/02/22-rdf-syntax-ns#" xmlns:svg="http://www.w3.org/2000/svg" xmlns="http://www.w3.org/2000/svg" xmlns:sodipodi="http://sodipodi.sourceforge.net/DTD/sodipodi-0.dtd" xmlns:inkscape="http://www.inkscape.org/namespaces/inkscape" version="1.1" x="0px" y="0px" viewBox="0 0 100 100"><g transform="translate(0,-952.36218)"><path style="text-indent:0;text-transform:none;direction:ltr;block-progression:tb;baseline-shift:baseline;color:#000000;enable-background:accumulate;" d="m 49.999999,956.375 c -18.74215,0 -34,15.25785 -34,34.00003 0,6.6545 1.930044,12.87587 5.249999,18.12497 l -16.7187495,24.1562 a 3.0003,3.0003 0 0 0 3.0625,4.6563 l 12.2812495,-2.4688 3.25,11.3438 a 3.0003,3.0003 0 0 0 5.40625,0.7813 l 14.875001,-23.2501 c 2.135014,0.4219 4.337164,0.6563 6.59375,0.6563 2.25659,0 4.45873,-0.2344 6.59375,-0.6563 l 14.875,23.2501 a 3.0003,3.0003 0 0 0 5.406253,-0.7813 l 3.25,-11.3438 12.28125,2.4688 a 3.0003,3.0003 0 0 0 3.0625,-4.6563 L 78.750002,1008.5 c 3.31996,-5.2491 5.25,-11.47047 5.25,-18.12497 0,-18.74218 -15.257853,-34.00003 -34.000003,-34.00003 z m 0,6 c 15.49951,0 28.000002,12.50049 28.000002,28.00003 0,15.49947 -12.500493,27.99997 -28.000002,27.99997 -15.49951,0 -28.000001,-12.5005 -28.000001,-27.99997 0,-15.49954 12.500491,-28.00003 28.000001,-28.00003 z m -0.34375,8.03125 a 3.0160067,2.984675 0 0 0 -2.34375,1.65625 l -4.5625,9.09375 -10.1875,1.46875 a 3.0160067,2.984675 0 0 0 -1.656251,5.09373 l 7.343751,7.125 -1.71875,10.03127 a 3.0160067,2.984675 0 0 0 2.90625,3.5 3.0160067,2.984675 0 0 0 1.46875,-0.375 l 9.09375,-4.7188 9.09375,4.7188 a 3.0160067,2.984675 0 0 0 4.375,-3.125 l -1.71875,-10.03127 7.34375,-7.125 a 3.0160067,2.984675 0 0 0 -1.65625,-5.09373 l -10.1875,-1.46875 -4.5625,-9.09375 a 3.0160067,2.984675 0 0 0 -3.03125,-1.65625 z m 0.34375,9.6875 2.53125,5.12498 a 3.0160067,2.984675 0 0 0 2.28125,1.625 l 5.71875,0.8125 -4.125,3.9688 a 3.0160067,2.984675 0 0 0 -0.90625,2.6562 l 0.96875,5.625 -5.0625,-2.6562 a 3.0160067,2.984675 0 0 0 -2.8125,0 l -5.09375,2.6562 0.96875,-5.625 a 3.0160067,2.984675 0 0 0 -0.875,-2.6562 l -4.125,-3.9688 5.71875,-0.8125 a 3.0160067,2.984675 0 0 0 2.25,-1.625 l 2.5625,-5.12498 z M 25.093748,1013.5 c 3.406765,3.6659 7.622165,6.5514 12.343751,8.4375 l -10.375001,16.2187 -2.1875,-7.625 a 3.0003,3.0003 0 0 0 -3.46875,-2.125 l -7.718749,1.5313 11.406249,-16.4375 z m 49.812501,0 11.406252,16.4375 -7.71875,-1.5313 a 3.0003,3.0003 0 0 0 -3.468753,2.125 l -2.1875,7.625 -10.375,-16.2187 c 4.72158,-1.8861 8.93699,-4.7716 12.34375,-8.4375 z" fill="#000000" fill-opacity="1" stroke="none" marker="none" visibility="visible" display="inline" overflow="visible"></path></g></svg>